<svg width="1372" height="11681" viewBox="0 0 1372 11681" fill="none" xmlns="http://www.w3.org/2000/svg">
<g clip-path="url(#clip0_328_491)">
<g filter="url(#filter0_d_328_491)">
<path fill-rule="evenodd" clip-rule="evenodd" d="M0 -37.7959H428.696C423.787 -17.3793 421.189 3.91925 421.189 25.8162C421.189 177.522 545.897 300.505 699.733 300.505C702.635 300.505 705.526 300.461 708.407 300.374V300.559C871.284 303.641 1002.37 436.638 1002.37 600.252C1002.37 765.798 868.17 900 702.624 900C552.142 900 427.559 789.111 406.133 644.588H405.093C395.061 501.876 274.488 389.176 127.224 389.176C81.3874 389.176 38.1365 400.094 0 419.438V-37.7959Z" fill="url(#paint0_linear_328_491)" fill-opacity="0.5" shape-rendering="crispEdges"/>
</g>
<g filter="url(#filter1_d_328_491)">
<path fill-rule="evenodd" clip-rule="evenodd" d="M-394.826 2690.13L-72.9736 2406.95C-63.1725 2425.52 -51.0541 2443.23 -36.5899 2459.67C63.6215 2573.56 238.486 2583.52 353.982 2481.9C356.16 2479.98 358.302 2478.04 360.408 2476.07L360.53 2476.21C484.849 2370.94 671.119 2384.19 779.196 2507.03C888.55 2631.32 876.444 2820.72 752.156 2930.07C639.179 3029.48 472.396 3028.52 360.843 2934.17L360.063 2934.86C258.261 2834.34 93.2933 2829.37 -17.2685 2926.65C-51.6814 2956.93 -76.9406 2993.7 -92.795 3033.41L-394.826 2690.13Z" fill="url(#paint1_linear_328_491)" fill-opacity="0.5" shape-rendering="crispEdges"/>
</g>
<circle cx="-0.5" cy="1268.5" r="332.5" fill="url(#paint2_linear_328_491)"/>
<path fill-rule="evenodd" clip-rule="evenodd" d="M849.5 2022C933.265 2022 1007.27 1980.22 1051.82 1916.36C1096.36 1980.22 1170.37 2022 1254.13 2022C1336.46 2022 1409.35 1981.64 1454.12 1919.64C1498.89 1981.64 1571.79 2022 1654.11 2022C1790.25 2022 1900.61 1911.64 1900.61 1775.5C1900.61 1639.36 1790.25 1529 1654.11 1529C1571.79 1529 1498.89 1569.36 1454.12 1631.36C1409.35 1569.36 1336.46 1529 1254.13 1529C1170.37 1529 1096.36 1570.78 1051.82 1634.64C1007.27 1570.78 933.265 1529 849.5 1529C713.362 1529 603 1639.36 603 1775.5C603 1911.64 713.362 2022 849.5 2022Z" fill="url(#paint3_linear_328_491)" fill-opacity="0.2"/>
<g filter="url(#filter2_d_328_491)">
<path fill-rule="evenodd" clip-rule="evenodd" d="M1698.26 8460.12L1393.42 8761.55C1382.56 8743.58 1369.43 8726.61 1354.04 8711.04C1247.37 8603.17 1072.22 8603.4 962.832 8711.57C960.769 8713.61 958.743 8715.67 956.756 8717.76L956.626 8717.63C838.642 8829.96 651.916 8827.56 536.876 8711.22C420.476 8593.5 421.543 8403.72 539.257 8287.32C646.261 8181.51 812.816 8172.76 929.669 8260.46L930.409 8259.73C1037.89 8354.16 1202.86 8349.52 1307.58 8245.97C1340.17 8213.74 1363.25 8175.57 1376.77 8135L1698.26 8460.12Z" fill="url(#paint4_linear_328_491)" fill-opacity="0.5" shape-rendering="crispEdges"/>
</g>
<path fill-rule="evenodd" clip-rule="evenodd" d="M-77.5 7744C6.2652 7744 80.2718 7702.22 124.816 7638.36C169.36 7702.22 243.367 7744 327.132 7744C409.456 7744 482.354 7703.64 527.123 7641.64C571.891 7703.64 644.789 7744 727.113 7744C863.251 7744 973.613 7633.64 973.613 7497.5C973.613 7361.36 863.251 7251 727.113 7251C644.789 7251 571.891 7291.36 527.123 7353.36C482.354 7291.36 409.456 7251 327.132 7251C243.367 7251 169.36 7292.78 124.816 7356.64C80.2718 7292.78 6.2652 7251 -77.5 7251C-213.638 7251 -324 7361.36 -324 7497.5C-324 7633.64 -213.638 7744 -77.5 7744Z" fill="url(#paint5_linear_328_491)" fill-opacity="0.2"/>
<path d="M283.307 8896.39C351.068 8896.39 406 8841.46 406 8773.69C406 8705.93 351.068 8651 283.307 8651C215.545 8651 160.613 8705.93 160.613 8773.69C160.613 8841.46 215.545 8896.39 283.307 8896.39Z" fill="url(#paint6_linear_328_491)" fill-opacity="0.2"/>
<path fill-rule="evenodd" clip-rule="evenodd" d="M-329.764 10379C-218.643 10379 -120.468 10323.6 -61.377 10238.9C-2.28583 10323.6 95.8892 10379 207.01 10379C316.218 10379 412.923 10325.5 472.312 10243.2C531.7 10325.5 628.405 10379 737.614 10379C918.211 10379 1064.61 10232.6 1064.61 10052C1064.61 9871.4 918.211 9725 737.614 9725C628.405 9725 531.7 9778.54 472.312 9860.79C412.923 9778.54 316.218 9725 207.01 9725C95.8892 9725 -2.28583 9780.43 -61.377 9865.14C-120.468 9780.43 -218.643 9725 -329.764 9725C-510.361 9725 -656.764 9871.4 -656.764 10052C-656.764 10232.6 -510.361 10379 -329.764 10379Z" fill="url(#paint7_linear_328_491)" fill-opacity="0.2"/>
</g>
<defs>
<filter id="filter0_d_328_491" x="-250" y="-283.796" width="1502.37" height="1437.8" filterUnits="userSpaceOnUse" color-interpolation-filters="sRGB">
<feFlood flood-opacity="0" result="BackgroundImageFix"/>
<feColorMatrix in="SourceAlpha" type="matrix" values="0 0 0 0 0 0 0 0 0 0 0 0 0 0 0 0 0 0 127 0" result="hardAlpha"/>
<feOffset dy="4"/>
<feGaussianBlur stdDeviation="125"/>
<feComposite in2="hardAlpha" operator="out"/>
<feColorMatrix type="matrix" values="0 0 0 0 0 0 0 0 0 0 0 0 0 0 0 0 0 0 0.05 0"/>
<feBlend mode="normal" in2="BackgroundImageFix" result="effect1_dropShadow_328_491"/>
<feBlend mode="normal" in="SourceGraphic" in2="effect1_dropShadow_328_491" result="shape"/>
</filter>
<filter id="filter1_d_328_491" x="-644.826" y="2159.28" width="1748.73" height="1128.13" filterUnits="userSpaceOnUse" color-interpolation-filters="sRGB">
<feFlood flood-opacity="0" result="BackgroundImageFix"/>
<feColorMatrix in="SourceAlpha" type="matrix" values="0 0 0 0 0 0 0 0 0 0 0 0 0 0 0 0 0 0 127 0" result="hardAlpha"/>
<feOffset dy="4"/>
<feGaussianBlur stdDeviation="125"/>
<feComposite in2="hardAlpha" operator="out"/>
<feColorMatrix type="matrix" values="0 0 0 0 0 0 0 0 0 0 0 0 0 0 0 0 0 0 0.05 0"/>
<feBlend mode="normal" in2="BackgroundImageFix" result="effect1_dropShadow_328_491"/>
<feBlend mode="normal" in="SourceGraphic" in2="effect1_dropShadow_328_491" result="shape"/>
</filter>
<filter id="filter2_d_328_491" x="200.27" y="7889" width="1747.99" height="1165.21" filterUnits="userSpaceOnUse" color-interpolation-filters="sRGB">
<feFlood flood-opacity="0" result="BackgroundImageFix"/>
<feColorMatrix in="SourceAlpha" type="matrix" values="0 0 0 0 0 0 0 0 0 0 0 0 0 0 0 0 0 0 127 0" result="hardAlpha"/>
<feOffset dy="4"/>
<feGaussianBlur stdDeviation="125"/>
<feComposite in2="hardAlpha" operator="out"/>
<feColorMatrix type="matrix" values="0 0 0 0 0 0 0 0 0 0 0 0 0 0 0 0 0 0 0.05 0"/>
<feBlend mode="normal" in2="BackgroundImageFix" result="effect1_dropShadow_328_491"/>
<feBlend mode="normal" in="SourceGraphic" in2="effect1_dropShadow_328_491" result="shape"/>
</filter>
<linearGradient id="paint0_linear_328_491" x1="-145.537" y1="-187.188" x2="1002.37" y2="879.76" gradientUnits="userSpaceOnUse">
<stop stop-color="#038C3E"/>
<stop offset="1" stop-color="#13682F"/>
</linearGradient>
<linearGradient id="paint1_linear_328_491" x1="-602.774" y1="2674.11" x2="963.828" y2="2716.88" gradientUnits="userSpaceOnUse">
<stop stop-color="#038C3E"/>
<stop offset="1" stop-color="#13682F"/>
</linearGradient>
<linearGradient id="paint2_linear_328_491" x1="290" y1="936" x2="-812" y2="1937.5" gradientUnits="userSpaceOnUse">
<stop stop-color="#038C3E" stop-opacity="0.13"/>
<stop offset="1" stop-color="#009D44" stop-opacity="0.38"/>
</linearGradient>
<linearGradient id="paint3_linear_328_491" x1="930" y1="1203" x2="1252" y2="2080.5" gradientUnits="userSpaceOnUse">
<stop stop-color="#038C3E" stop-opacity="0.2"/>
<stop offset="1" stop-color="#009D44"/>
</linearGradient>
<linearGradient id="paint4_linear_328_491" x1="1906.78" y1="8464.02" x2="340.348" y2="8512.47" gradientUnits="userSpaceOnUse">
<stop stop-color="#038C3E"/>
<stop offset="1" stop-color="#13682F"/>
</linearGradient>
<linearGradient id="paint5_linear_328_491" x1="2.99998" y1="6925" x2="325" y2="7802.5" gradientUnits="userSpaceOnUse">
<stop stop-color="#038C3E" stop-opacity="0.2"/>
<stop offset="1" stop-color="#009D44"/>
</linearGradient>
<linearGradient id="paint6_linear_328_491" x1="222.451" y1="8488.74" x2="470.092" y2="8745.13" gradientUnits="userSpaceOnUse">
<stop stop-color="#038C3E" stop-opacity="0.2"/>
<stop offset="1" stop-color="#009D44"/>
</linearGradient>
<linearGradient id="paint7_linear_328_491" x1="-222.975" y1="9292.54" x2="204.182" y2="10456.6" gradientUnits="userSpaceOnUse">
<stop stop-color="#038C3E" stop-opacity="0.2"/>
<stop offset="1" stop-color="#009D44"/>
</linearGradient>
<clipPath id="clip0_328_491">
<rect width="1372" height="11681" fill="white"/>
</clipPath>
</defs>
</svg>
